<?xml version="1.0" standalone="no"?>
<!DOCTYPE svg PUBLIC "-//W3C//DTD SVG 20010904//EN"
 "http://www.w3.org/TR/2001/REC-SVG-20010904/DTD/svg10.dtd">
<svg version="1.0" xmlns="http://www.w3.org/2000/svg"
 width="500.000000pt" height="500.000000pt" viewBox="0 0 500.000000 500.000000"
 preserveAspectRatio="xMidYMid meet">
<metadata>
Created by potrace 1.14, written by Peter Selinger 2001-2017
</metadata>
<g transform="translate(0.000000,500.000000) scale(0.100000,-0.100000)"
fill="#000000" stroke="none">
<path d="M2213 4794 c-83 -18 -198 -66 -272 -114 -152 -99 -363 -293 -419
-387 -50 -85 -102 -233 -102 -293 0 -25 -5 -63 -10 -85 -7 -33 -6 -43 10 -60
15 -16 19 -42 24 -140 6 -140 18 -186 73 -281 23 -38 53 -98 68 -133 47 -113
72 -143 147 -182 67 -34 77 -47 117 -157 38 -103 54 -134 103 -198 45 -60 54
-103 66 -293 5 -80 4 -128 -3 -136 -5 -7 -35 -20 -65 -30 -64 -20 -76 -28 -96
-68 -13 -24 -14 -37 -4 -80 13 -56 33 -79 93 -115 45 -26 47 -26 47 -7 0 17
35 21 45 5 3 -6 -3 -10 -13 -10 -44 0 -35 -42 28 -129 25 -33 34 -40 41 -30
13 21 11 29 -6 23 -11 -5 -13 -2 -8 12 4 12 3 15 -5 10 -8 -4 -10 -2 -6 8 3 9
-5 21 -20 31 -14 10 -26 24 -26 32 0 8 -5 11 -11 7 -7 -4 -10 -1 -7 7 3 8 14
13 26 12 11 -1 26 4 32 12 9 11 9 15 1 15 -6 0 -11 9 -11 20 0 25 22 26 43 2
21 -23 21 -29 0 -35 -10 -2 6 -2 36 1 51 5 53 4 47 -16 -5 -16 -1 -25 19 -38
14 -9 24 -23 21 -30 -3 -8 -2 -14 2 -14 14 0 29 16 36 37 5 16 2 23 -13 28
-17 5 -19 9 -9 25 9 14 8 23 -5 44 -22 32 -22 65 0 73 11 4 22 -1 31 -15 8
-13 25 -22 39 -22 19 0 24 -4 19 -15 -4 -11 3 -19 19 -25 14 -5 25 -15 25 -21
0 -6 -7 -8 -16 -5 -11 4 -8 -3 8 -23 23 -30 48 -40 48 -20 0 7 -8 18 -17 25
-13 9 -14 13 -5 14 10 0 13 13 11 48 -2 26 1 62 5 80 5 22 4 38 -4 47 -10 12
-9 15 4 16 9 1 21 3 26 4 6 1 15 3 20 4 22 2 8 31 -39 79 -28 27 -47 53 -44
56 4 3 27 6 51 6 38 0 50 5 77 33 17 18 70 52 118 76 48 24 87 48 87 53 0 5
14 14 30 19 17 6 30 17 30 25 0 10 -12 7 -46 -11 -53 -28 -66 -30 -94 -13 -17
11 -22 10 -29 -1 -5 -7 -14 -11 -19 -7 -6 4 -28 7 -49 8 -44 1 -86 25 -79 44
3 7 1 16 -4 19 -6 4 -11 -6 -11 -22 -2 -23 -2 -24 -6 -5 -2 12 -11 22 -19 22
-18 0 -74 53 -74 69 0 6 -5 20 -12 31 -9 15 -9 24 1 43 13 24 28 30 101 41 78
13 110 41 46 41 -16 0 -31 6 -33 13 -3 8 6 12 29 12 18 0 42 7 53 15 17 14 15
15 -26 11 -60 -6 -144 13 -128 28 3 3 27 8 54 11 28 4 59 9 70 12 11 4 27 8
35 9 86 15 100 16 100 5 0 -6 -4 -11 -10 -11 -5 0 -10 -7 -10 -15 0 -8 -8 -15
-17 -15 -10 0 -25 -5 -33 -11 -11 -8 -8 -9 15 -4 17 3 43 16 60 27 17 13 43
21 62 21 34 -1 63 21 47 36 -5 5 -27 11 -49 14 -59 8 -154 16 -122 11 42 -8
32 -22 -20 -29 -27 -3 -59 -8 -73 -11 l-25 -4 24 14 c18 10 20 15 10 19 -8 3
-5 6 9 6 12 1 22 6 22 11 0 6 -19 10 -42 10 -24 -1 -59 3 -77 9 -19 6 -37 7
-40 2 -8 -11 -71 -20 -71 -10 0 4 5 11 10 14 7 4 7 12 0 25 -11 20 11 47 29
36 5 -4 13 -1 18 7 4 7 21 18 38 25 25 12 31 11 41 -2 17 -23 33 -20 44 10 11
29 6 44 -16 44 -8 0 -14 5 -14 10 0 6 -13 10 -29 10 -17 0 -39 10 -55 27 -23
22 -29 25 -37 13 -7 -12 -11 -12 -17 -2 -7 10 -11 10 -22 -3 -7 -8 -17 -15
-22 -15 -17 0 2 54 28 78 13 13 25 36 26 52 1 17 2 38 2 48 1 9 -5 16 -11 15
-7 -2 -13 2 -13 7 0 6 4 10 9 10 4 0 11 15 14 34 3 19 15 44 26 55 43 43 12
230 -40 244 -11 3 -19 14 -19 25 0 11 -6 22 -14 25 -8 3 -20 15 -26 27 -10 19
-9 21 12 19 13 -1 36 3 51 9 16 7 37 12 47 12 10 0 22 5 26 11 3 6 16 8 28 5
11 -2 30 2 40 9 10 8 22 12 27 9 4 -2 59 9 121 25 67 17 127 27 148 24 26 -3
31 -2 20 6 -13 9 -13 11 3 11 16 0 56 18 67 31 3 3 12 8 21 11 12 5 16 -1 16
-23 0 -21 -5 -29 -18 -29 -9 0 -19 -7 -23 -15 -3 -9 -18 -15 -34 -15 -16 0
-43 -7 -60 -16 -18 -8 -36 -13 -42 -9 -5 3 -23 -1 -40 -10 -17 -9 -34 -14 -38
-11 -4 2 -24 -10 -45 -28 -36 -30 -37 -32 -22 -54 16 -21 17 -22 48 -5 18 10
43 18 57 20 14 1 26 7 28 13 2 5 16 10 32 10 15 0 33 7 40 15 10 13 9 15 -10
15 -32 0 -22 6 22 14 32 6 41 2 72 -24 19 -17 43 -30 53 -29 22 3 53 -10 53
-22 0 -5 -9 -9 -19 -9 -11 0 -23 -4 -26 -10 -4 -6 5 -10 19 -10 15 0 25 -5 23
-12 -1 -7 8 -14 21 -16 12 -2 20 -8 17 -13 -4 -5 -2 -9 4 -9 5 0 12 6 14 13 3
6 6 -1 6 -16 1 -15 8 -44 16 -64 8 -19 15 -46 15 -59 0 -15 6 -24 15 -24 9 0
15 -6 14 -12 -2 -7 3 -39 11 -71 12 -51 11 -73 -4 -178 -10 -66 -16 -126 -13
-133 3 -8 -5 -49 -19 -92 -13 -44 -24 -81 -24 -84 0 -3 31 42 69 100 38 58 67
107 65 109 -2 2 -20 -6 -40 -18 -41 -25 -49 -23 -38 11 4 13 6 25 5 27 -2 2 1
7 6 10 4 3 19 27 32 54 13 26 28 47 34 47 5 0 7 9 4 20 -4 14 4 25 30 41 34
21 34 22 32 87 -2 43 2 67 9 70 8 2 12 -9 12 -30 1 -31 1 -32 15 -14 15 19 15
19 16 -5 1 -22 1 -22 11 6 6 17 18 38 27 49 14 16 16 47 14 238 -3 234 -13
301 -73 457 -44 113 -135 214 -295 328 -175 124 -279 167 -455 188 -139 17
-176 17 -257 -1z m637 -875 c0 -17 20 -9 21 9 0 14 2 14 8 -3 4 -11 16 -20 26
-20 12 0 19 -9 21 -27 3 -33 -3 -34 -36 -8 -14 11 -35 20 -47 20 -13 0 -23 5
-23 10 0 6 -7 10 -15 10 -15 0 -20 12 -10 22 8 8 55 -3 55 -13z m67 5 c-3 -3
-12 -4 -19 -1 -8 3 -5 6 6 6 11 1 17 -2 13 -5z m43 -104 c0 -5 -5 -10 -11 -10
-5 0 -7 5 -4 10 3 6 8 10 11 10 2 0 4 -4 4 -10z m-822 -77 c7 -7 24 -13 38
-13 13 0 32 -9 41 -20 10 -11 24 -20 33 -20 11 0 15 -12 16 -47 l1 -46 -18 35
c-9 19 -30 40 -44 46 -26 12 -27 11 -22 -8 4 -16 2 -19 -7 -11 -16 13 -132 21
-167 11 -22 -7 -27 -5 -22 6 3 9 -2 14 -13 14 -12 0 -15 3 -8 8 6 4 14 17 18
29 4 12 17 24 29 26 42 9 112 3 125 -10z m91 -127 c-3 -3 -11 5 -18 17 -13 21
-12 21 5 5 10 -10 16 -20 13 -22z m-89 4 c0 -5 -2 -10 -4 -10 -3 0 -8 5 -11
10 -3 6 -1 10 4 10 6 0 11 -4 11 -10z m37 -24 c-4 -9 -11 -16 -18 -16 -6 0 -8
7 -5 16 3 9 6 21 6 27 0 8 3 8 11 0 7 -7 9 -19 6 -27z m-370 -8 c-3 -8 -6 -5
-6 6 -1 11 2 17 5 13 3 -3 4 -12 1 -19z m453 -13 c0 -8 -4 -15 -10 -15 -5 0
-10 7 -10 15 0 8 5 15 10 15 6 0 10 -7 10 -15z m-159 -46 c6 -11 16 -11 92 -6
57 5 64 -5 66 -90 1 -52 0 -53 -29 -53 -17 0 -30 -5 -30 -11 0 -6 -20 -29 -44
-52 -43 -42 -66 -102 -42 -110 7 -3 5 -11 -5 -23 -9 -10 -20 -29 -23 -41 -8
-26 13 -42 26 -19 13 24 29 20 24 -6 -3 -13 -5 -33 -5 -45 -1 -13 -7 -23 -15
-23 -18 0 -30 -67 -21 -110 10 -44 -12 -38 -24 8 -17 60 -14 100 10 112 16 9
18 14 8 26 -16 19 -43 18 -35 -1 3 -9 -1 -18 -9 -21 -8 -4 -15 -18 -15 -33 0
-14 -7 -34 -15 -45 -13 -18 -14 -17 -21 8 -3 14 -3 33 0 42 8 20 -11 94 -24
94 -5 0 -12 9 -15 20 -3 11 -13 20 -21 20 -8 0 -14 8 -14 19 0 14 -6 17 -25
13 -18 -3 -25 0 -25 12 0 10 -6 13 -15 10 -10 -4 -15 0 -15 13 0 27 -10 35
-27 22 -12 -11 -14 -9 -12 7 0 4 -5 10 -11 14 -9 6 -9 13 -1 29 8 14 8 21 1
21 -6 0 -8 14 -4 39 4 24 2 41 -5 45 -16 10 -14 26 4 26 11 0 15 11 15 38 0
27 -3 33 -10 22 -8 -12 -10 -10 -10 8 0 15 5 22 13 19 7 -2 12 -23 12 -55 0
-54 19 -88 34 -64 4 7 14 12 21 10 7 -2 17 11 22 30 10 39 25 47 62 32 21 -8
34 -6 59 7 25 13 28 18 15 21 -10 2 -18 10 -18 17 0 7 -8 16 -17 19 -10 3 11
3 47 0 36 -3 67 -10 71 -15z m-504 -221 c-3 -7 -5 -2 -5 12 0 14 2 19 5 13 2
-7 2 -19 0 -25z m653 -210 c0 -5 -13 -7 -29 -3 -17 3 -32 2 -36 -4 -11 -18
-35 -12 -35 8 0 17 5 19 35 14 24 -4 35 -2 35 7 0 10 3 10 15 0 8 -7 15 -17
15 -22z m5 -28 c3 -5 -1 -10 -9 -10 -9 0 -16 5 -16 10 0 6 4 10 9 10 6 0 13
-4 16 -10z m5 -30 c0 -5 -4 -10 -10 -10 -5 0 -10 5 -10 10 0 6 5 10 10 10 6 0
10 -4 10 -10z m-10 -28 c0 -13 -12 -22 -22 -16 -10 6 -1 24 13 24 5 0 9 -4 9
-8z m-105 -92 c3 -6 3 -19 0 -30 -6 -18 -8 -18 -22 -5 -8 9 -12 22 -9 30 6 17
22 20 31 5z m160 -140 c3 -5 -3 -10 -14 -10 -12 0 -21 5 -21 10 0 6 6 10 14
10 8 0 18 -4 21 -10z"/>
<path d="M2200 3410 c0 -5 5 -10 10 -10 6 0 10 5 10 10 0 6 -4 10 -10 10 -5 0
-10 -4 -10 -10z"/>
<path d="M1837 3383 c-12 -11 -8 -23 8 -23 8 0 15 7 15 15 0 16 -12 20 -23 8z"/>
<path d="M1876 3282 c-3 -5 1 -18 9 -28 13 -17 14 -18 15 -1 0 9 0 20 1 24 1
11 -18 15 -25 5z"/>
<path d="M2868 3823 c7 -3 16 -2 19 1 4 3 -2 6 -13 5 -11 0 -14 -3 -6 -6z"/>
<path d="M2595 3780 c3 -5 -13 -26 -35 -46 -28 -25 -40 -44 -37 -56 3 -10 1
-15 -4 -12 -10 6 -6 -27 6 -67 8 -25 43 -39 100 -39 56 0 79 8 66 24 -7 8 -4
12 12 13 12 1 23 7 25 13 2 5 8 8 13 5 5 -4 6 7 3 25 -5 20 -3 30 6 30 7 0 10
-8 7 -19 -4 -17 1 -18 49 -17 94 3 86 21 -24 59 -90 30 -102 42 -37 34 40 -5
45 -4 25 4 -14 6 -56 9 -95 6 -38 -2 -65 -2 -59 0 13 4 -5 53 -19 53 -5 0 -5
-4 -2 -10z m-36 -147 c0 -5 -4 -17 -9 -28 -8 -18 -9 -17 -9 8 -1 15 4 27 9 27
6 0 10 -3 9 -7z"/>
<path d="M3222 3485 c0 -16 2 -22 5 -12 2 9 2 23 0 30 -3 6 -5 -1 -5 -18z"/>
<path d="M2487 3222 c-15 -16 -13 -17 40 -19 54 -2 55 -2 38 18 -22 24 -57 25
-78 1z"/>
<path d="M2305 3070 c-9 -15 -1 -23 21 -18 15 3 16 4 1 16 -11 9 -17 10 -22 2z"/>
<path d="M2961 2894 c0 -11 3 -14 6 -6 3 7 2 16 -1 19 -3 4 -6 -2 -5 -13z"/>
<path d="M3060 2392 c0 -5 13 -27 29 -49 23 -32 28 -47 24 -79 -2 -21 -10 -48
-17 -59 -28 -41 -189 -195 -205 -195 -10 -1 -77 -66 -98 -96 -26 -37 -44 -119
-30 -133 8 -8 7 -11 -2 -11 -7 0 -9 -4 -6 -10 4 -6 17 -4 36 5 36 19 38 4 3
-24 -32 -25 -25 -27 17 -6 33 18 75 100 85 169 9 57 25 80 122 171 84 79 182
211 182 245 0 30 -66 80 -105 80 -19 0 -35 -4 -35 -8z"/>
<path d="M3236 2195 c-3 -9 -6 -22 -5 -28 0 -7 5 -1 10 12 5 13 8 26 5 28 -2
2 -6 -3 -10 -12z"/>
<path d="M1796 2155 c-24 -18 -33 -77 -11 -69 8 4 15 2 15 -4 0 -16 -29 -22
-57 -11 -15 6 -24 7 -21 3 4 -4 3 -16 -3 -28 -10 -20 -10 -20 5 -2 9 11 19 17
22 13 4 -4 1 -13 -6 -22 -16 -20 -6 -19 28 2 l27 17 -19 -22 c-11 -12 -25 -22
-33 -22 -7 0 -25 -7 -38 -16 -23 -15 -25 -15 -25 2 0 25 -13 9 -16 -20 -3 -28
8 -27 66 9 19 12 41 25 48 29 6 4 12 3 12 -3 0 -6 -30 -25 -66 -43 -36 -18
-61 -34 -55 -36 6 -2 40 11 76 28 46 22 65 37 63 49 -1 9 1 22 5 29 5 6 4 12
-2 12 -6 0 -8 12 -4 30 5 27 3 30 -13 24 -17 -6 -18 -5 -3 7 15 12 36 60 27
59 -2 0 -12 -7 -22 -15z"/>
<path d="M1698 2086 c-22 -16 -23 -26 -4 -26 7 0 16 9 19 20 3 11 4 20 4 20
-1 0 -10 -7 -19 -14z"/>
<path d="M1675 2040 c-8 -13 11 -30 35 -30 12 0 13 2 1 9 -7 5 -17 14 -21 21
-6 10 -9 10 -15 0z"/>
<path d="M1816 2015 c4 -8 8 -15 10 -15 2 0 4 7 4 15 0 8 -4 15 -10 15 -5 0
-7 -7 -4 -15z"/>
<path d="M2420 2010 c0 -5 5 -10 11 -10 5 0 7 5 4 10 -3 6 -8 10 -11 10 -2 0
-4 -4 -4 -10z"/>
<path d="M3164 1998 c-4 -7 -14 -23 -22 -35 -8 -13 -12 -23 -9 -23 9 0 50 61
44 66 -3 3 -8 -1 -13 -8z"/>
<path d="M1804 1980 c-5 -5 -40 -25 -79 -45 -51 -26 -61 -34 -37 -30 35 7 118
50 128 66 8 14 0 21 -12 9z"/>
<path d="M1825 1970 c-7 -22 -75 -70 -100 -70 -8 0 -15 -4 -15 -10 0 -14 4
-13 55 11 25 12 52 31 60 42 15 21 15 21 15 2 0 -14 -18 -31 -54 -53 -30 -17
-59 -32 -65 -32 -6 0 -11 -5 -11 -11 0 -10 40 -3 50 10 9 11 82 42 87 37 3 -3
-11 -13 -31 -22 -20 -10 -36 -21 -36 -26 0 -4 -7 -8 -15 -8 -8 0 -15 -4 -15
-9 0 -4 -15 -13 -32 -19 -30 -9 -31 -10 -7 -11 14 -1 29 3 35 8 5 5 32 23 61
39 l51 30 15 -44 c12 -37 12 -44 1 -44 -8 0 -14 -4 -14 -10 0 -5 -6 -10 -12
-10 -7 0 -33 -14 -57 -30 -56 -38 -48 -38 31 0 72 35 115 41 48 7 -64 -33
-100 -58 -100 -69 0 -7 4 -7 13 0 6 5 38 24 70 41 l58 31 13 -31 c17 -40 23
-19 15 51 -3 30 -6 45 -7 33 -1 -13 -6 -23 -10 -23 -11 0 -32 69 -32 103 0 21
4 25 18 20 15 -6 15 -5 3 10 -19 23 -31 21 -31 -5 0 -17 -3 -19 -12 -10 -8 8
-8 15 0 24 15 19 14 26 -8 48 -25 25 -27 25 -35 0z"/>
<path d="M1570 1949 c0 -5 5 -7 10 -4 6 3 10 8 10 11 0 2 -4 4 -10 4 -5 0 -10
-5 -10 -11z"/>
<path d="M2258 1919 c-19 -11 -24 -29 -8 -29 5 0 14 9 20 20 12 23 12 23 -12
9z"/>
<path d="M1920 1861 c0 -17 2 -31 4 -31 8 0 13 51 5 56 -5 3 -9 -9 -9 -25z"/>
<path d="M1675 1851 c-3 -5 -1 -12 5 -16 5 -3 10 1 10 9 0 18 -6 21 -15 7z"/>
<path d="M1961 1845 c0 -11 4 -29 9 -40 l9 -20 0 20 c0 11 -4 29 -9 40 l-9 20
0 -20z"/>
<path d="M2100 1851 c0 -6 4 -13 10 -16 6 -3 7 1 4 9 -7 18 -14 21 -14 7z"/>
<path d="M1785 1815 c-27 -19 -56 -34 -62 -34 -7 -1 -13 -5 -13 -10 0 -12 24
-8 41 5 8 6 35 23 62 38 26 15 47 29 47 31 0 13 -30 0 -75 -30z"/>
<path d="M2000 1820 c6 -11 13 -20 16 -20 2 0 0 9 -6 20 -6 11 -13 20 -16 20
-2 0 0 -9 6 -20z"/>
<path d="M1787 1777 c-37 -24 -65 -46 -61 -49 3 -4 15 2 27 13 11 10 27 19 34
19 7 0 13 5 13 10 0 6 8 10 18 10 18 1 52 22 52 34 0 12 -16 5 -83 -37z"/>
<path d="M2090 1747 c0 -14 5 -29 10 -32 7 -4 8 3 4 22 -9 38 -14 42 -14 10z"/>
<path d="M1070 1740 c0 -5 5 -10 10 -10 6 0 10 5 10 10 0 6 -4 10 -10 10 -5 0
-10 -4 -10 -10z"/>
<path d="M1981 1734 c0 -11 3 -14 6 -6 3 7 2 16 -1 19 -3 4 -6 -2 -5 -13z"/>
<path d="M1860 1700 c-25 -16 -51 -34 -57 -40 -7 -6 -22 -14 -32 -18 -13 -4
-17 -12 -13 -19 6 -9 15 -6 33 11 15 13 44 33 66 45 22 11 43 27 46 36 4 8 5
15 4 14 -1 0 -22 -14 -47 -29z"/>
<path d="M2170 1721 c0 -5 5 -13 10 -16 6 -3 10 -2 10 4 0 5 -4 13 -10 16 -5
3 -10 2 -10 -4z"/>
<path d="M2146 1707 c3 -10 9 -15 12 -12 3 3 0 11 -7 18 -10 9 -11 8 -5 -6z"/>
<path d="M2200 1706 c0 -9 8 -14 20 -13 11 1 20 2 20 4 0 1 -9 7 -20 13 -16 8
-20 8 -20 -4z"/>
<path d="M3012 1691 c-7 -19 -10 -36 -7 -39 6 -7 26 49 22 62 -2 6 -9 -5 -15
-23z"/>
<path d="M2745 1690 c-16 -11 -25 -20 -20 -20 10 0 64 39 55 40 -3 0 -18 -9
-35 -20z"/>
<path d="M1867 1660 c-19 -16 -39 -30 -44 -30 -8 0 -43 -36 -43 -45 0 -7 118
75 131 91 22 26 -9 15 -44 -16z"/>
<path d="M2083 1640 c0 -30 2 -43 4 -27 2 15 2 39 0 55 -2 15 -4 2 -4 -28z"/>
<path d="M3050 1680 c0 -6 7 -10 15 -10 8 0 15 2 15 4 0 2 -7 6 -15 10 -8 3
-15 1 -15 -4z"/>
<path d="M2170 1650 c5 -18 12 -35 16 -39 9 -9 -7 53 -17 63 -5 5 -4 -5 1 -24z"/>
<path d="M1735 1660 c-3 -5 1 -10 10 -10 9 0 13 5 10 10 -3 6 -8 10 -10 10 -2
0 -7 -4 -10 -10z"/>
<path d="M2130 1665 c0 -5 5 -17 10 -25 5 -8 10 -10 10 -5 0 6 -5 17 -10 25
-5 8 -10 11 -10 5z"/>
<path d="M2690 1660 c0 -5 5 -10 10 -10 6 0 10 5 10 10 0 6 -4 10 -10 10 -5 0
-10 -4 -10 -10z"/>
<path d="M1869 1618 c-70 -55 -83 -68 -76 -75 3 -3 17 5 31 18 13 13 43 37 65
53 23 17 41 33 41 38 0 13 -4 10 -61 -34z"/>
<path d="M2210 1651 c0 -6 4 -13 10 -16 6 -3 7 1 4 9 -7 18 -14 21 -14 7z"/>
<path d="M2659 1633 c-13 -16 -12 -17 4 -4 16 13 21 21 13 21 -2 0 -10 -8 -17
-17z"/>
<path d="M3020 1645 c0 -2 10 -10 23 -16 20 -11 21 -11 8 4 -13 16 -31 23 -31
12z"/>
<path d="M1915 1603 c-74 -62 -97 -84 -94 -88 3 -2 19 9 36 24 17 15 46 39 65
53 18 14 31 28 28 31 -3 3 -18 -6 -35 -20z"/>
<path d="M1655 1610 c-8 -13 5 -13 25 0 13 8 13 10 -2 10 -9 0 -20 -4 -23 -10z"/>
<path d="M2131 1604 c0 -11 3 -14 6 -6 3 7 2 16 -1 19 -3 4 -6 -2 -5 -13z"/>
<path d="M905 1601 c-6 -11 9 -23 19 -14 9 9 7 23 -3 23 -6 0 -12 -4 -16 -9z"/>
<path d="M3025 1590 c17 -11 37 -20 45 -20 8 0 -2 9 -23 20 -48 26 -61 26 -22
0z"/>
<path d="M2031 1584 c0 -11 3 -14 6 -6 3 7 2 16 -1 19 -3 4 -6 -2 -5 -13z"/>
<path d="M1935 1570 c-10 -11 -14 -20 -9 -20 12 1 44 25 44 34 0 12 -17 6 -35
-14z"/>
<path d="M2931 1580 c-2 -26 -55 -101 -67 -96 -7 3 -15 -5 -18 -17 -7 -29 -3
-30 21 -7 12 10 24 16 29 12 4 -4 4 -1 0 6 -4 6 -1 19 6 27 34 38 39 47 35 68
-2 12 -5 15 -6 7z"/>
<path d="M2995 1555 c39 -32 54 -32 19 0 -15 14 -32 25 -38 25 -6 0 3 -11 19
-25z"/>
<path d="M2579 1553 c-13 -16 -12 -17 4 -4 9 7 17 15 17 17 0 8 -8 3 -21 -13z"/>
<path d="M1973 1553 c-15 -5 -17 -23 -4 -23 5 0 11 7 15 15 3 8 4 15 3 14 -1
0 -8 -3 -14 -6z"/>
<path d="M870 1540 c0 -5 7 -7 15 -4 8 4 15 8 15 10 0 2 -7 4 -15 4 -8 0 -15
-4 -15 -10z"/>
<path d="M2142 1530 c0 -14 2 -19 5 -12 2 6 2 18 0 25 -3 6 -5 1 -5 -13z"/>
<path d="M1866 1510 c-22 -17 -33 -30 -25 -30 8 1 30 14 49 30 45 39 27 38
-24 0z"/>
<path d="M2335 1474 c14 -37 28 -70 32 -73 3 -4 4 1 1 9 -3 8 -13 39 -22 67
-10 29 -22 55 -27 59 -5 3 2 -25 16 -62z"/>
<path d="M1912 1498 c-18 -17 -30 -33 -27 -36 3 -3 20 8 37 26 18 17 30 34 27
37 -3 2 -20 -9 -37 -27z"/>
<path d="M1965 1497 c-41 -31 -90 -85 -84 -91 2 -2 33 23 68 55 71 64 80 85
16 36z"/>
<path d="M2551 1521 c-1 -8 -7 -11 -16 -7 -10 3 -15 1 -14 -7 1 -6 -1 -20 -5
-29 -6 -13 -13 -15 -32 -8 -22 9 -24 8 -15 -9 17 -31 0 -31 -26 0 -14 16 -27
28 -30 26 -2 -3 4 -30 15 -60 l19 -56 57 70 c31 39 55 76 52 82 -3 8 -5 8 -5
-2z m-51 -71 c0 -5 -2 -10 -4 -10 -3 0 -8 5 -11 10 -3 6 -1 10 4 10 6 0 11 -4
11 -10z"/>
<path d="M2986 1510 c12 -12 27 -21 33 -19 7 3 -3 13 -21 23 l-33 19 21 -23z"/>
<path d="M2091 1504 c0 -11 3 -14 6 -6 3 7 2 16 -1 19 -3 4 -6 -2 -5 -13z"/>
<path d="M1974 1452 c-28 -26 -59 -52 -69 -58 -13 -7 -15 -13 -8 -17 12 -7
141 108 132 117 -2 3 -27 -16 -55 -42z"/>
<path d="M1692 1470 c0 -14 2 -19 5 -12 2 6 2 18 0 25 -3 6 -5 1 -5 -13z"/>
<path d="M2950 1482 c0 -4 14 -16 30 -25 17 -10 30 -16 30 -14 0 2 -13 13 -30
25 -16 13 -30 19 -30 14z"/>
<path d="M765 1470 c3 -5 8 -10 11 -10 2 0 4 5 4 10 0 6 -5 10 -11 10 -5 0 -7
-4 -4 -10z"/>
<path d="M3105 1470 c4 -6 11 -8 16 -5 14 9 11 15 -7 15 -8 0 -12 -5 -9 -10z"/>
<path d="M2100 1459 c0 -8 7 -24 15 -35 18 -24 19 -7 0 26 -9 16 -14 19 -15 9z"/>
<path d="M2910 1461 c0 -5 12 -17 28 -26 l27 -18 -24 27 c-26 28 -31 31 -31
17z"/>
<path d="M1985 1415 c-27 -24 -47 -47 -43 -51 4 -3 24 10 45 29 21 20 47 43
58 51 15 11 16 15 5 15 -8 0 -37 -20 -65 -44z"/>
<path d="M3078 1443 c7 -3 16 -2 19 1 4 3 -2 6 -13 5 -11 0 -14 -3 -6 -6z"/>
<path d="M750 1431 c0 -5 7 -11 14 -14 10 -4 13 -1 9 9 -6 15 -23 19 -23 5z"/>
<path d="M2046 1415 c-14 -13 -26 -30 -26 -37 0 -7 7 -2 16 10 9 13 25 27 37
31 12 4 16 10 10 14 -6 4 -22 -4 -37 -18z"/>
<path d="M2870 1436 c0 -2 8 -10 18 -17 15 -13 16 -12 3 4 -13 16 -21 21 -21
13z"/>
<path d="M2160 1424 c0 -5 7 -19 15 -30 8 -10 15 -14 15 -8 0 5 -7 19 -15 30
-8 10 -15 14 -15 8z"/>
<path d="M2815 1420 c-3 -5 -1 -10 4 -10 6 0 11 5 11 10 0 6 -2 10 -4 10 -3 0
-8 -4 -11 -10z"/>
<path d="M4351 1423 c-1 -6 -8 -19 -17 -27 -8 -9 -11 -16 -6 -16 15 0 34 28
29 42 -4 9 -6 9 -6 1z"/>
<path d="M2210 1414 c0 -6 7 -19 16 -30 14 -18 14 -18 3 6 -14 31 -19 36 -19
24z"/>
<path d="M2777 1407 c-11 -29 -9 -43 4 -30 6 6 9 19 7 29 -3 18 -4 18 -11 1z"/>
<path d="M830 1389 c0 -5 5 -7 10 -4 6 3 10 8 10 11 0 2 -4 4 -10 4 -5 0 -10
-5 -10 -11z"/>
<path d="M2276 1370 c20 -43 24 -47 24 -29 0 8 -10 25 -21 39 l-20 25 17 -35z"/>
<path d="M2845 1390 c3 -5 16 -15 28 -21 22 -12 22 -12 3 10 -19 21 -43 30
-31 11z"/>
<path d="M795 1380 c-4 -6 -11 -7 -17 -4 -5 4 -4 -4 3 -17 7 -13 12 -25 11
-26 -1 -2 -2 -13 -2 -25 l0 -23 18 21 c9 12 24 24 32 27 8 3 3 6 -12 6 -31 1
-33 4 -18 32 11 20 -3 28 -15 9z"/>
<path d="M860 1381 c0 -6 -7 -11 -15 -11 -8 0 -15 -4 -15 -10 0 -15 19 -12 36
4 9 9 10 17 4 21 -5 3 -10 1 -10 -4z"/>
<path d="M2410 1385 c0 -15 18 -40 24 -34 3 3 -1 14 -9 25 -8 10 -14 15 -15 9z"/>
<path d="M1990 1365 c0 -8 -4 -15 -8 -15 -5 0 -14 -11 -20 -25 -7 -15 -8 -25
-2 -25 6 0 10 6 10 13 0 7 9 19 20 27 21 15 27 40 10 40 -5 0 -10 -7 -10 -15z"/>
<path d="M2042 1360 c-12 -12 -22 -25 -22 -31 0 -6 14 2 30 18 17 15 30 29 30
30 0 9 -19 0 -38 -17z"/>
<path d="M2091 1348 c-31 -38 -24 -42 12 -7 15 15 24 29 20 32 -4 2 -19 -9
-32 -25z"/>
<path d="M730 1353 c0 -4 5 -15 10 -23 8 -13 10 -13 10 2 0 9 -4 20 -10 23 -5
3 -10 3 -10 -2z"/>
<path d="M2381 1350 c0 -8 4 -22 9 -30 12 -18 12 -2 0 25 -6 13 -9 15 -9 5z"/>
<path d="M2551 1344 c0 -11 3 -14 6 -6 3 7 2 16 -1 19 -3 4 -6 -2 -5 -13z"/>
<path d="M4279 1327 c-14 -18 -35 -49 -48 -69 -12 -21 -28 -38 -36 -38 -7 0
-15 -11 -17 -25 -3 -14 -1 -25 6 -25 6 0 4 -5 -4 -10 -13 -8 -13 -12 -1 -32
13 -21 13 -22 -2 -9 -10 7 -17 12 -18 10 0 -2 -1 -20 -3 -40 -2 -20 -12 -47
-24 -59 -11 -12 -24 -37 -28 -54 -3 -17 -15 -48 -25 -68 -11 -20 -37 -106 -59
-190 -52 -197 -56 -217 -65 -313 -3 -44 -8 -96 -11 -115 -6 -47 -24 -251 -24
-272 0 -14 8 -18 36 -18 40 0 67 21 58 44 -3 9 -1 23 5 30 7 8 9 25 6 39 -5
19 -2 25 14 30 12 3 21 0 21 -6 0 -6 3 -8 6 -5 3 4 -3 26 -14 49 -11 24 -18
48 -14 53 3 5 9 0 13 -12 5 -12 13 -22 19 -22 14 0 13 9 -5 26 -17 17 -20 54
-5 54 5 0 8 10 6 23 -3 12 -5 24 -5 27 -1 3 -6 -2 -11 -10 -8 -12 -10 -11 -10
8 0 22 -1 22 -29 8 -28 -15 -28 -15 -27 14 1 18 5 25 11 20 6 -5 17 -5 24 -1
9 6 10 11 2 15 -18 12 -13 36 6 29 14 -5 15 -1 10 30 -5 35 -4 37 18 33 14 -3
29 2 37 12 11 13 11 14 0 8 -14 -9 -52 19 -52 38 0 6 4 5 9 -3 7 -10 13 -5 26
23 9 20 15 43 11 51 -9 23 5 77 18 72 8 -3 11 6 10 29 -2 18 1 36 6 39 6 4 10
15 10 26 0 11 4 17 10 14 5 -3 8 0 5 7 -3 7 4 24 15 38 16 20 20 22 20 8 0
-10 4 -18 10 -18 6 0 6 9 0 25 -12 31 -2 58 18 50 12 -4 14 1 9 30 -5 28 -2
38 16 51 13 10 16 14 5 11 -19 -7 -29 19 -17 48 6 17 8 17 8 3 1 -21 21 -24
21 -4 0 8 -4 18 -10 21 -16 10 -12 23 10 30 23 7 27 25 5 25 -14 0 -14 3 0 30
19 37 19 46 0 30 -12 -10 -15 -10 -15 2 0 8 5 19 12 26 9 9 9 12 0 12 -7 0
-12 -4 -12 -9 0 -5 -9 -11 -20 -14 -11 -3 -20 -3 -20 -1 0 4 25 36 46 58 5 6
13 19 17 29 4 11 12 15 18 11 8 -5 9 -3 4 6 -4 7 -4 15 1 19 13 9 35 51 27 50
-5 0 -20 -15 -34 -32z m-281 -1040 c2 -9 -1 -17 -7 -17 -6 0 -11 6 -11 14 0 8
-6 17 -12 20 -7 3 -4 5 7 3 11 -1 21 -10 23 -20z"/>
<path d="M2120 1319 c-12 -16 -20 -32 -17 -35 6 -6 47 45 47 57 0 16 -8 10
-30 -22z"/>
<path d="M2708 1327 c-3 -19 -2 -25 4 -19 6 6 8 18 6 28 -3 14 -5 12 -10 -9z"/>
<path d="M1621 1329 c17 -11 39 -12 39 -1 0 4 -12 8 -27 9 -19 1 -22 -1 -12
-8z"/>
<path d="M2780 1336 c0 -2 8 -10 18 -17 15 -13 16 -12 3 4 -13 16 -21 21 -21
13z"/>
<path d="M829 1310 c-5 -42 -4 -72 3 -76 4 -3 8 0 8 6 0 6 5 8 10 5 6 -3 10
-1 10 4 0 6 -5 11 -11 11 -6 0 -9 6 -6 13 2 6 1 21 -4 32 -5 14 -8 16 -10 5z"/>
<path d="M1992 1308 c-6 -6 -12 -19 -12 -27 0 -13 2 -13 16 1 9 9 15 21 13 27
-3 9 -8 8 -17 -1z"/>
<path d="M758 1295 c-2 -11 -1 -27 3 -35 4 -8 12 -27 19 -42 7 -15 10 -38 8
-53 -4 -21 -1 -28 17 -35 34 -13 38 -27 10 -34 -24 -6 -36 -26 -15 -26 6 0 10
5 10 10 0 6 5 10 11 10 6 0 8 -9 3 -22 -7 -23 -6 -23 14 -5 17 16 21 16 24 3
2 -11 7 -13 18 -6 12 8 12 12 3 18 -19 12 -63 104 -56 115 3 6 1 7 -4 4 -15
-10 -29 11 -46 68 -10 35 -16 44 -19 30z"/>
<path d="M1703 1294 c-7 -7 -9 -15 -5 -17 4 -3 13 1 19 9 7 7 9 15 5 17 -4 3
-13 -1 -19 -9z"/>
<path d="M2102 1240 c-35 -39 -60 -70 -55 -70 11 0 38 25 72 66 13 16 33 39
44 52 11 12 16 22 11 22 -5 -1 -38 -32 -72 -70z"/>
<path d="M2940 1306 c0 -2 7 -7 16 -10 8 -3 12 -2 9 4 -6 10 -25 14 -25 6z"/>
<path d="M860 1293 c0 -15 19 -37 26 -31 3 4 -1 14 -10 23 -9 9 -16 13 -16 8z"/>
<path d="M1512 1280 c0 -14 2 -19 5 -12 2 6 2 18 0 25 -3 6 -5 1 -5 -13z"/>
<path d="M2021 1274 c-18 -21 -6 -30 14 -11 8 9 15 18 15 21 0 11 -15 5 -29
-10z"/>
<path d="M2074 1275 c-4 -11 -15 -25 -23 -32 -9 -7 -11 -13 -5 -13 17 0 47 37
41 52 -3 9 -7 7 -13 -7z"/>
<path d="M2177 1268 c-8 -13 -31 -41 -51 -62 -20 -22 -36 -44 -36 -48 0 -15
34 14 65 53 17 22 36 46 43 54 14 16 15 25 3 25 -5 0 -15 -10 -24 -22z"/>
<path d="M2643 1261 c-9 -24 -8 -29 3 -24 8 3 14 16 14 29 0 31 -3 30 -17 -5z"/>
<path d="M3615 1280 c3 -5 8 -10 11 -10 2 0 4 5 4 10 0 6 -5 10 -11 10 -5 0
-7 -4 -4 -10z"/>
<path d="M3950 1271 c0 -5 5 -13 10 -16 6 -3 10 -2 10 4 0 5 -4 13 -10 16 -5
3 -10 2 -10 -4z"/>
<path d="M2810 1245 c13 -14 25 -23 28 -21 4 5 -35 46 -45 46 -3 0 4 -11 17
-25z"/>
<path d="M2182 1212 c-42 -50 -49 -62 -34 -62 13 0 84 90 80 102 -2 6 -23 -12
-46 -40z"/>
<path d="M2350 1241 c0 -11 -5 -23 -11 -27 -13 -8 -30 16 -22 30 3 5 1 6 -5 2
-15 -9 -4 -34 19 -46 14 -8 20 -6 29 9 13 25 13 51 0 51 -5 0 -10 -9 -10 -19z"/>
<path d="M2931 1244 c0 -11 3 -14 6 -6 3 7 2 16 -1 19 -3 4 -6 -2 -5 -13z"/>
<path d="M4160 1249 c0 -5 5 -7 10 -4 6 3 10 8 10 11 0 2 -4 4 -10 4 -5 0 -10
-5 -10 -11z"/>
<path d="M907 1234 c-4 -4 -7 -14 -7 -23 0 -11 3 -12 11 -4 6 6 10 16 7 23 -2
6 -7 8 -11 4z"/>
<path d="M851 1204 c-6 -15 -10 -29 -7 -31 2 -2 7 5 11 16 3 12 11 21 16 21 5
0 9 5 9 10 0 19 -17 10 -29 -16z"/>
<path d="M1845 1220 c3 -5 8 -10 11 -10 2 0 4 5 4 10 0 6 -5 10 -11 10 -5 0
-7 -4 -4 -10z"/>
<path d="M2218 1185 c-39 -45 -45 -55 -29 -55 10 0 75 90 69 95 -2 2 -20 -16
-40 -40z"/>
<path d="M2586 1215 c-3 -9 -6 -22 -5 -28 0 -7 5 -1 10 12 5 13 8 26 5 28 -2
2 -6 -3 -10 -12z"/>
<path d="M927 1205 c-10 -24 -9 -55 2 -55 5 0 12 -7 15 -16 3 -8 2 -13 -2 -10
-16 9 -5 -83 12 -109 9 -14 13 -25 9 -25 -5 0 -14 9 -21 20 -7 11 -18 20 -25
20 -9 0 -9 -2 0 -8 17 -11 36 -64 24 -71 -10 -6 -11 -80 -2 -79 25 2 29 -5 26
-43 -5 -42 -15 -67 -15 -36 0 9 -5 17 -10 17 -7 0 -6 -8 2 -22 7 -13 11 -30
10 -38 -2 -12 1 -11 11 3 8 9 19 17 26 17 13 0 15 -22 2 -36 -6 -5 -12 -22
-15 -37 -4 -22 -1 -27 12 -25 15 3 17 -5 14 -60 -2 -38 1 -69 8 -77 17 -20 3
-73 -21 -80 -11 -4 -17 -11 -13 -16 3 -5 11 -6 17 -2 32 20 48 5 28 -25 -7
-11 -17 -10 -53 7 -38 17 -46 26 -57 63 -7 24 -24 77 -37 119 -13 42 -24 84
-24 93 0 9 -4 24 -10 34 -11 21 -60 231 -60 260 0 16 -6 22 -22 23 -17 1 -19
2 -5 6 19 5 22 33 8 61 -5 9 -12 25 -15 35 -9 29 -36 21 -36 -12 0 -16 -6 -31
-12 -34 -10 -3 -9 -9 3 -23 15 -19 15 -54 -1 -54 -4 0 -8 -16 -7 -35 1 -19 5
-35 9 -35 4 0 8 -7 8 -16 0 -10 -6 -14 -15 -10 -18 7 -20 -10 -2 -17 9 -4 9
-7 0 -14 -17 -12 -13 -83 4 -90 19 -8 16 -51 -4 -56 -15 -4 -15 -6 5 -12 12
-4 22 -11 22 -16 0 -5 7 -9 15 -9 8 0 15 -4 15 -9 0 -4 -11 -6 -25 -3 -25 4
-29 -2 -26 -40 1 -9 -3 -19 -9 -23 -5 -3 -10 -14 -9 -23 0 -13 3 -12 11 6 6
12 15 22 20 22 12 0 10 -18 -3 -25 -6 -4 -7 -19 -4 -36 5 -22 3 -29 -9 -29 -9
0 -16 -4 -16 -10 0 -16 30 -12 36 5 10 25 24 17 24 -15 0 -23 -3 -28 -17 -23
-10 4 -14 2 -10 -4 4 -6 -1 -14 -10 -17 -15 -6 -15 -8 -3 -16 17 -11 20 -42 6
-52 -6 -4 3 -10 20 -14 32 -8 54 -22 54 -35 0 -5 -11 -2 -24 7 -19 12 -29 13
-43 5 -10 -6 -16 -11 -13 -11 3 -1 16 -4 30 -6 14 -3 26 -9 28 -14 2 -6 10
-10 17 -10 18 0 15 -38 -3 -45 -12 -4 -12 -8 -2 -21 7 -8 19 -13 27 -10 7 3
13 -1 13 -9 0 -8 5 -15 10 -15 6 0 8 12 5 27 -3 16 -2 21 1 13 4 -8 11 -18 17
-21 13 -9 0 -29 -19 -29 -8 0 -14 -5 -14 -11 0 -6 12 -9 28 -7 17 2 27 -2 27
-9 0 -7 -4 -13 -9 -12 -5 0 -13 -6 -18 -15 -5 -9 -16 -16 -24 -16 -9 0 -14 -6
-11 -12 2 -7 10 -13 17 -13 7 0 15 -6 18 -14 3 -10 0 -12 -13 -8 -12 5 -18 1
-22 -13 -7 -26 -9 -25 -37 5 -29 31 -39 32 -31 3 9 -30 35 -49 55 -43 9 3 26
-4 38 -15 17 -16 22 -17 22 -6 0 8 -4 18 -10 21 -16 10 -11 34 9 45 14 7 22 7
27 -2 4 -6 3 -8 -4 -4 -14 8 -25 -26 -15 -50 6 -17 8 -17 14 6 l7 25 1 -27 c1
-29 15 -38 24 -15 4 9 6 9 6 0 1 -10 48 -13 201 -13 176 0 201 2 207 16 3 9 1
25 -5 35 -7 10 -12 21 -12 24 0 7 38 0 46 -8 4 -4 16 0 26 10 22 20 24 10 2
-16 -10 -11 -23 -17 -30 -14 -9 3 -14 -2 -14 -12 0 -14 6 -16 26 -11 19 5 30
2 40 -11 12 -16 13 -10 8 44 -4 53 -2 62 11 57 11 -5 15 1 15 20 0 23 3 26 26
20 25 -7 26 -6 9 13 -17 20 -49 21 -61 2 -6 -11 -34 -12 -34 -1 0 4 14 15 30
24 20 11 28 22 24 32 -4 9 -1 16 6 16 7 0 10 7 7 15 -4 8 -2 17 4 21 5 3 9 33
8 66 -2 50 1 63 17 75 17 14 16 14 -16 9 -34 -7 -34 -6 -10 8 17 10 31 11 48
5 17 -7 23 -6 20 3 -3 7 -15 15 -29 18 -23 6 -24 6 -4 19 19 12 19 12 -4 7
-13 -3 -36 1 -51 9 -15 8 -30 11 -34 8 -3 -4 -6 1 -6 10 0 18 25 23 35 7 10
-16 45 -12 45 5 0 8 4 15 10 15 5 0 6 -7 3 -17 -4 -11 -3 -14 5 -9 7 4 12 13
12 21 0 7 6 15 13 18 27 10 -1 14 -45 8 -36 -6 -45 -5 -41 6 3 7 0 13 -6 13
-6 0 -11 -7 -11 -15 0 -17 -16 -20 -25 -5 -3 6 -15 10 -27 10 -16 0 -18 3 -9
13 7 10 7 17 0 24 -6 6 -8 17 -4 24 6 9 12 7 22 -7 14 -19 14 -19 11 1 -4 28
-39 45 -56 28 -8 -8 -11 -20 -8 -28 3 -8 1 -15 -4 -15 -9 0 -14 14 -11 33 0 4
-6 7 -15 7 -11 0 -14 -6 -9 -22 6 -22 5 -22 -8 1 -14 23 -15 23 -25 5 -6 -10
-12 -13 -12 -6 0 6 -6 12 -14 12 -9 0 -16 13 -19 33 l-4 32 -1 -36 c-1 -22 -8
-39 -17 -43 -9 -3 -15 0 -15 9 0 8 5 15 10 15 6 0 10 10 10 23 0 17 -2 19 -10
7 -12 -19 -20 -10 -30 34 -8 35 5 52 35 48 6 -1 12 13 12 31 2 28 1 29 -7 10
-9 -22 -34 -31 -43 -15 -2 4 -2 2 -1 -5 2 -7 -1 -15 -6 -18 -13 -8 -24 35 -11
48 13 13 15 41 3 33 -5 -3 -17 9 -27 26 -13 22 -15 33 -7 36 15 5 16 32 2 32
-5 0 -10 12 -10 26 0 14 -4 23 -9 20 -5 -3 -14 8 -22 25 -11 27 -10 33 4 41
18 10 24 48 7 48 -5 0 -10 -7 -10 -16 0 -29 -25 -8 -40 34 -9 23 -27 56 -41
73 -22 27 -27 29 -32 14z m-147 -285 c0 -18 -19 -11 -30 11 -11 19 -10 20 9 9
12 -6 21 -15 21 -20z m-60 -100 c0 -5 -4 -10 -10 -10 -5 0 -10 5 -10 10 0 6 5
10 10 10 6 0 10 -4 10 -10z m40 -31 c0 -5 -7 -9 -15 -9 -9 0 -12 6 -9 15 6 15
24 11 24 -6z m15 -149 c-3 -5 -10 -10 -16 -10 -5 0 -9 5 -9 10 0 6 7 10 16 10
8 0 12 -4 9 -10z m549 -94 c5 -53 0 -76 -16 -76 -6 0 -7 11 -4 26 4 14 2 32
-4 39 -8 9 -7 20 1 39 15 33 17 31 23 -28z m-50 19 c-17 -26 -34 -33 -34 -14
0 5 4 8 9 4 5 -3 12 4 16 15 3 11 11 20 16 20 5 0 2 -11 -7 -25z m-52 -17 c-7
-7 -12 -8 -12 -2 0 5 -4 2 -10 -6 -5 -8 -12 -12 -15 -8 -10 10 29 46 40 37 5
-6 4 -14 -3 -21z m228 -18 c0 -5 -4 -10 -10 -10 -5 0 -10 5 -10 10 0 6 5 10
10 10 6 0 10 -4 10 -10z m-160 -35 c0 -39 17 -46 45 -18 14 14 18 14 27 2 6
-9 11 -10 14 -3 5 13 54 6 54 -7 0 -10 0 -10 -47 -14 -20 -2 -30 1 -26 7 3 6
0 9 -8 6 -8 -3 -17 -20 -20 -39 -4 -19 -7 -25 -8 -13 -1 25 -49 43 -61 24 -5
-8 -9 -7 -13 4 -9 23 2 46 19 39 12 -4 14 0 8 21 -4 16 -2 26 5 26 6 0 11 -16
11 -35z m-50 10 c0 -8 -4 -15 -10 -15 -5 0 -10 7 -10 15 0 8 5 15 10 15 6 0
10 -7 10 -15z m-18 -57 c-9 -9 -12 -7 -12 12 0 19 3 21 12 12 9 -9 9 -15 0
-24z m-432 -8 c0 -5 -4 -10 -10 -10 -5 0 -10 5 -10 10 0 6 5 10 10 10 6 0 10
-4 10 -10z m-35 -30 c3 -5 -1 -10 -9 -10 -9 0 -16 5 -16 10 0 6 4 10 9 10 6 0
13 -4 16 -10z m509 -5 c9 10 19 15 22 12 10 -10 -6 -45 -23 -51 -20 -8 -20 -8
-27 29 -4 20 -4 24 2 11 8 -18 9 -18 26 -1z m-286 -14 c-3 -24 4 -41 18 -41
13 0 14 -3 5 -13 -6 -8 -8 -17 -4 -20 3 -4 1 -7 -5 -7 -15 0 -39 37 -47 72 -6
23 -4 26 14 21 11 -3 20 -8 19 -12z m47 -22 c11 -17 -1 -21 -15 -4 -8 9 -8 15
-2 15 6 0 14 -5 17 -11z m285 1 c0 -5 -2 -10 -4 -10 -3 0 -8 5 -11 10 -3 6 -1
10 4 10 6 0 11 -4 11 -10z m-490 -30 c0 -5 -7 -10 -15 -10 -8 0 -15 5 -15 10
0 6 7 10 15 10 8 0 15 -4 15 -10z m470 -26 c0 -23 -2 -25 -16 -13 -13 10 -17
10 -25 -2 -7 -11 -9 -9 -9 8 0 21 11 31 38 32 7 1 12 -10 12 -25z m65 6 c3 -5
1 -10 -4 -10 -6 0 -11 5 -11 10 0 6 2 10 4 10 3 0 8 -4 11 -10z m-548 -52 c-3
-7 -5 -2 -5 12 0 14 2 19 5 13 2 -7 2 -19 0 -25z m20 10 c-3 -8 -6 -5 -6 6 -1
11 2 17 5 13 3 -3 4 -12 1 -19z m175 -4 c-2 -10 4 -24 14 -31 10 -7 13 -13 7
-13 -15 0 -37 28 -38 51 -1 11 3 18 9 16 6 -2 9 -12 8 -23z m225 -16 c-3 -8
-6 -5 -6 6 -1 11 2 17 5 13 3 -3 4 -12 1 -19z m58 12 c12 10 15 10 15 -1 0
-24 -16 -40 -32 -34 -11 4 -18 -2 -22 -21 -11 -40 -19 -21 -11 26 6 34 9 39
21 29 11 -9 18 -9 29 1z m75 0 c0 -5 -4 -10 -10 -10 -5 0 -10 5 -10 10 0 6 5
10 10 10 6 0 10 -4 10 -10z m-290 -50 c0 -5 -5 -10 -11 -10 -5 0 -7 5 -4 10 3
6 8 10 11 10 2 0 4 -4 4 -10z m-13 -41 c12 -12 6 -49 -9 -49 -5 0 -8 8 -6 18
1 9 -1 23 -5 30 -10 15 5 16 20 1z m-177 -59 c0 -5 -7 -10 -15 -10 -8 0 -15 5
-15 10 0 6 7 10 15 10 8 0 15 -4 15 -10z"/>
<path d="M1253 1213 c9 -2 23 -2 30 0 6 3 -1 5 -18 5 -16 0 -22 -2 -12 -5z"/>
<path d="M710 1185 c0 -8 -6 -15 -12 -15 -9 0 -8 -3 2 -10 9 -6 17 -5 22 3 11
17 10 37 -2 37 -5 0 -10 -7 -10 -15z"/>
<path d="M2261 1174 c-12 -15 -21 -31 -21 -35 0 -5 -6 -9 -12 -9 -7 0 -21 -14
-30 -30 -9 -17 -16 -30 -14 -30 7 0 65 60 89 93 31 42 20 52 -12 11z"/>
<path d="M885 1180 c-3 -5 -1 -10 4 -10 6 0 11 5 11 10 0 6 -2 10 -4 10 -3 0
-8 -4 -11 -10z"/>
<path d="M3960 1180 c0 -5 5 -10 11 -10 5 0 7 5 4 10 -3 6 -8 10 -11 10 -2 0
-4 -4 -4 -10z"/>
<path d="M2310 1168 c0 -7 -19 -33 -43 -58 -44 -46 -75 -100 -57 -100 6 0 10
6 10 13 0 8 15 29 33 48 34 36 77 93 77 103 0 3 -4 6 -10 6 -5 0 -10 -5 -10
-12z"/>
<path d="M2357 1143 c-4 -3 -7 -11 -7 -17 0 -6 5 -5 12 2 6 6 9 14 7 17 -3 3
-9 2 -12 -2z"/>
<path d="M2115 1131 c-3 -5 -1 -12 5 -16 5 -3 10 1 10 9 0 18 -6 21 -15 7z"/>
<path d="M2087 1111 c-4 -17 -3 -21 5 -13 5 5 8 16 6 23 -3 8 -7 3 -11 -10z"/>
<path d="M1651 1104 c0 -11 3 -14 6 -6 3 7 2 16 -1 19 -3 4 -6 -2 -5 -13z"/>
<path d="M2150 1110 c0 -5 5 -10 10 -10 6 0 10 5 10 10 0 6 -4 10 -10 10 -5 0
-10 -4 -10 -10z"/>
<path d="M2366 1080 c-40 -42 -46 -62 -11 -31 35 30 69 71 59 71 -6 0 -27 -18
-48 -40z"/>
<path d="M1810 1090 c0 -5 5 -10 11 -10 5 0 7 5 4 10 -3 6 -8 10 -11 10 -2 0
-4 -4 -4 -10z"/>
<path d="M1956 1087 c3 -10 9 -15 12 -12 3 3 0 11 -7 18 -10 9 -11 8 -5 -6z"/>
<path d="M3945 1090 c-3 -5 -1 -10 4 -10 6 0 11 5 11 10 0 6 -2 10 -4 10 -3 0
-8 -4 -11 -10z"/>
<path d="M4130 1081 c0 -25 6 -27 13 -6 4 8 2 17 -3 20 -6 4 -10 -3 -10 -14z"/>
<path d="M2275 1053 c-35 -36 -41 -61 -7 -30 10 10 22 14 25 10 4 -3 7 3 7 15
0 11 8 26 18 31 9 6 12 11 5 11 -7 0 -28 -16 -48 -37z"/>
<path d="M2427 1083 c-4 -3 -7 -11 -7 -17 0 -6 5 -5 12 2 6 6 9 14 7 17 -3 3
-9 2 -12 -2z"/>
<path d="M4270 1080 c-12 -7 -12 -12 -3 -21 10 -10 14 -9 19 5 8 22 2 27 -16
16z"/>
<path d="M4460 1080 c0 -5 7 -10 16 -10 8 0 12 5 9 10 -3 6 -10 10 -16 10 -5
0 -9 -4 -9 -10z"/>
<path d="M2472 1045 c-1 -18 1 -36 6 -39 5 -3 8 10 7 30 -3 46 -10 52 -13 9z"/>
<path d="M1084 1044 c6 -24 5 -26 -15 -21 -21 6 -21 5 -4 -11 13 -13 19 -14
22 -4 3 6 12 12 21 12 13 0 13 2 -3 13 -10 8 -15 19 -11 25 4 7 2 12 -4 12 -8
0 -10 -9 -6 -26z"/>
<path d="M2104 1048 c-9 -14 -2 -16 26 -8 25 6 25 6 3 12 -13 3 -26 2 -29 -4z"/>
<path d="M1220 1040 c0 -5 5 -10 10 -10 6 0 10 5 10 10 0 6 -4 10 -10 10 -5 0
-10 -4 -10 -10z"/>
<path d="M2364 1019 l-29 -31 32 19 c18 10 35 24 38 31 8 21 -10 13 -41 -19z"/>
<path d="M2630 1041 c0 -5 7 -12 16 -15 14 -5 15 -4 4 9 -14 17 -20 19 -20 6z"/>
<path d="M3951 1022 c-6 -11 -11 -29 -11 -39 1 -16 2 -16 12 2 6 11 16 23 22
27 8 5 7 11 -1 19 -8 8 -14 6 -22 -9z"/>
<path d="M2305 1020 c-3 -5 -1 -10 4 -10 6 0 11 5 11 10 0 6 -2 10 -4 10 -3 0
-8 -4 -11 -10z"/>
<path d="M2590 1021 c0 -5 7 -12 16 -15 14 -5 15 -4 4 9 -14 17 -20 19 -20 6z"/>
<path d="M810 1010 c0 -5 5 -10 10 -10 6 0 10 5 10 10 0 6 -4 10 -10 10 -5 0
-10 -4 -10 -10z"/>
<path d="M1250 1010 c0 -5 5 -10 11 -10 5 0 7 5 4 10 -3 6 -8 10 -11 10 -2 0
-4 -4 -4 -10z"/>
<path d="M1770 1010 c0 -5 5 -10 11 -10 5 0 7 5 4 10 -3 6 -8 10 -11 10 -2 0
-4 -4 -4 -10z"/>
<path d="M2500 1011 c0 -6 4 -13 10 -16 6 -3 7 1 4 9 -7 18 -14 21 -14 7z"/>
<path d="M1690 999 c0 -5 5 -7 10 -4 6 3 10 8 10 11 0 2 -4 4 -10 4 -5 0 -10
-5 -10 -11z"/>
<path d="M1835 990 c-3 -5 -1 -10 4 -10 6 0 11 5 11 10 0 6 -2 10 -4 10 -3 0
-8 -4 -11 -10z"/>
<path d="M2274 986 c-4 -9 -12 -15 -20 -12 -7 3 -18 -1 -24 -9 -8 -10 -4 -15
21 -24 39 -13 49 -14 29 -1 -13 8 -13 13 -2 31 7 11 11 23 8 26 -3 3 -8 -2
-12 -11z"/>
<path d="M2380 990 c0 -5 4 -10 9 -10 6 0 13 5 16 10 3 6 -1 10 -9 10 -9 0
-16 -4 -16 -10z"/>
<path d="M2482 970 c0 -14 3 -34 8 -45 l9 -20 -1 20 c0 11 -4 31 -8 45 l-8 25
0 -25z"/>
<path d="M1246 972 c-3 -6 -1 -14 5 -17 14 -9 20 -2 10 14 -6 8 -11 9 -15 3z"/>
<path d="M2410 965 c-7 -9 -10 -18 -7 -21 3 -3 10 4 17 15 13 25 8 27 -10 6z"/>
<path d="M1190 964 c0 -14 31 -34 42 -28 8 5 9 2 5 -10 -4 -10 -7 -24 -7 -32
0 -8 -4 -14 -10 -14 -5 0 -10 8 -10 17 0 13 -3 14 -11 6 -18 -18 12 -42 44
-36 22 4 26 2 21 -11 -7 -17 11 -46 28 -46 6 0 7 8 3 18 -4 9 -8 26 -9 37 -1
14 -8 20 -24 19 -20 -1 -22 3 -17 27 5 23 2 29 -24 42 -17 9 -31 13 -31 11z"/>
<path d="M2507 959 c7 -7 15 -10 18 -7 3 3 -2 9 -12 12 -14 6 -15 5 -6 -5z"/>
<path d="M2570 951 c5 -11 15 -23 21 -27 6 -3 3 5 -6 20 -20 30 -30 35 -15 7z"/>
<path d="M884 935 c-3 -8 -4 -20 -2 -27 3 -7 7 -1 10 15 6 29 1 36 -8 12z"/>
<path d="M1731 934 c0 -11 3 -14 6 -6 3 7 2 16 -1 19 -3 4 -6 -2 -5 -13z"/>
<path d="M2100 933 c0 -13 5 -23 10 -23 13 0 13 11 0 30 -8 12 -10 11 -10 -7z"/>
<path d="M2440 943 c0 -5 -7 -17 -15 -27 -12 -16 -17 -17 -30 -6 -8 7 -18 10
-21 7 -3 -3 4 -11 16 -17 20 -10 26 -8 51 19 18 21 23 31 13 31 -8 0 -14 -3
-14 -7z"/>
<path d="M1266 931 c-4 -7 -5 -15 -2 -18 9 -9 19 4 14 18 -4 11 -6 11 -12 0z"/>
<path d="M2540 938 c0 -3 9 -15 20 -28 11 -13 20 -19 20 -13 0 5 -9 18 -20 28
-11 10 -20 16 -20 13z"/>
<path d="M1090 903 c1 -18 18 -35 24 -24 4 6 4 16 1 21 -7 12 -25 13 -25 3z"/>
<path d="M4445 900 c3 -5 8 -10 11 -10 2 0 4 5 4 10 0 6 -5 10 -11 10 -5 0 -7
-4 -4 -10z"/>
<path d="M1360 886 c0 -9 5 -16 10 -16 6 0 10 4 10 9 0 6 -4 13 -10 16 -5 3
-10 -1 -10 -9z"/>
<path d="M2490 886 c0 -9 5 -14 10 -11 6 3 10 1 10 -4 0 -6 -4 -11 -10 -11 -5
0 -6 -7 -3 -17 5 -12 3 -14 -7 -8 -8 5 -11 4 -6 -3 4 -6 13 -9 21 -6 8 4 12
11 9 16 -4 6 -1 13 5 17 8 5 5 13 -9 26 -18 17 -20 17 -20 1z"/>
<path d="M2530 891 c0 -5 7 -12 16 -15 14 -5 15 -4 4 9 -14 17 -20 19 -20 6z"/>
<path d="M2355 880 c3 -5 11 -10 16 -10 6 0 7 5 4 10 -3 6 -11 10 -16 10 -6 0
-7 -4 -4 -10z"/>
<path d="M2095 870 c-3 -5 -2 -10 4 -10 5 0 13 5 16 10 3 6 2 10 -4 10 -5 0
-13 -4 -16 -10z"/>
<path d="M1640 860 c0 -5 5 -10 11 -10 5 0 7 5 4 10 -3 6 -8 10 -11 10 -2 0
-4 -4 -4 -10z"/>
<path d="M1230 846 c0 -9 5 -16 10 -16 6 0 10 4 10 9 0 6 -4 13 -10 16 -5 3
-10 -1 -10 -9z"/>
<path d="M1600 849 c0 -5 5 -7 10 -4 6 3 10 8 10 11 0 2 -4 4 -10 4 -5 0 -10
-5 -10 -11z"/>
<path d="M2305 850 c-3 -5 0 -10 9 -10 8 0 23 -3 33 -6 16 -6 16 -5 -2 9 -24
19 -32 21 -40 7z"/>
<path d="M1200 826 c0 -8 -3 -23 -6 -33 -5 -15 -4 -16 5 -3 9 13 12 12 17 -7
4 -13 11 -23 16 -23 5 0 7 4 4 9 -3 5 1 11 9 15 8 3 15 10 15 17 0 6 -7 8 -16
5 -11 -4 -18 1 -21 14 -6 23 -23 27 -23 6z"/>
<path d="M1320 824 c0 -17 22 -14 28 4 2 7 -3 12 -12 12 -9 0 -16 -7 -16 -16z"/>
<path d="M2530 831 c0 -6 5 -13 10 -16 6 -3 10 1 10 9 0 9 -4 16 -10 16 -5 0
-10 -4 -10 -9z"/>
<path d="M1135 820 c-3 -5 -1 -10 4 -10 6 0 11 5 11 10 0 6 -2 10 -4 10 -3 0
-8 -4 -11 -10z"/>
<path d="M1420 819 c0 -5 5 -7 10 -4 6 3 10 8 10 11 0 2 -4 4 -10 4 -5 0 -10
-5 -10 -11z"/>
<path d="M1525 820 c3 -5 8 -10 11 -10 2 0 4 5 4 10 0 6 -5 10 -11 10 -5 0 -7
-4 -4 -10z"/>
<path d="M1375 810 c-3 -5 -1 -10 4 -10 6 0 11 5 11 10 0 6 -2 10 -4 10 -3 0
-8 -4 -11 -10z"/>
<path d="M1496 797 c3 -10 9 -15 12 -12 3 3 0 11 -7 18 -10 9 -11 8 -5 -6z"/>
<path d="M880 790 c0 -5 5 -10 10 -10 6 0 10 5 10 10 0 6 -4 10 -10 10 -5 0
-10 -4 -10 -10z"/>
<path d="M1295 780 c-3 -5 -12 -7 -20 -4 -8 4 -15 -3 -17 -18 -2 -15 -11 -24
-25 -26 -19 -3 -23 -9 -22 -40 1 -31 2 -33 8 -13 6 21 8 22 21 10 18 -17 38
-17 68 -1 17 10 22 10 22 1 0 -7 2 -10 5 -7 9 9 -6 36 -22 43 -10 3 -26 -4
-41 -17 l-24 -23 7 25 c7 24 28 43 50 46 6 0 16 2 23 2 6 1 12 7 12 13 0 5 -4
7 -10 4 -5 -3 -10 -1 -10 4 0 14 -17 14 -25 1z"/>
<path d="M1410 775 c7 -8 17 -15 22 -15 6 0 5 7 -2 15 -7 8 -17 15 -22 15 -6
0 -5 -7 2 -15z"/>
<path d="M1787 760 c3 -11 7 -20 9 -20 2 0 4 9 4 20 0 11 -4 20 -9 20 -5 0 -7
-9 -4 -20z"/>
<path d="M1357 763 c-12 -12 -7 -22 8 -17 8 4 15 10 15 15 0 11 -14 12 -23 2z"/>
<path d="M2120 756 c0 -9 5 -16 10 -16 6 0 10 4 10 9 0 6 -4 13 -10 16 -5 3
-10 -1 -10 -9z"/>
<path d="M3270 739 c0 -11 4 -18 10 -14 5 3 7 12 3 20 -7 21 -13 19 -13 -6z"/>
<path d="M850 739 c0 -5 5 -7 10 -4 6 3 10 8 10 11 0 2 -4 4 -10 4 -5 0 -10
-5 -10 -11z"/>
<path d="M880 721 c0 -11 4 -22 9 -25 4 -3 6 6 3 19 -5 30 -12 33 -12 6z"/>
<path d="M1145 729 c-4 -6 -5 -13 -2 -16 7 -7 27 6 27 18 0 12 -17 12 -25 -2z"/>
<path d="M2050 729 c0 -5 5 -7 10 -4 6 3 10 8 10 11 0 2 -4 4 -10 4 -5 0 -10
-5 -10 -11z"/>
<path d="M1411 704 c0 -11 3 -14 6 -6 3 7 2 16 -1 19 -3 4 -6 -2 -5 -13z"/>
<path d="M1540 710 c0 -5 5 -10 10 -10 6 0 10 5 10 10 0 6 -4 10 -10 10 -5 0
-10 -4 -10 -10z"/>
<path d="M1570 710 c0 -5 5 -10 11 -10 5 0 7 5 4 10 -3 6 -8 10 -11 10 -2 0
-4 -4 -4 -10z"/>
<path d="M1386 667 c-7 -27 -1 -33 17 -15 11 11 11 16 2 25 -10 9 -14 7 -19
-10z"/>
<path d="M1830 680 c0 -5 5 -10 11 -10 5 0 7 5 4 10 -3 6 -8 10 -11 10 -2 0
-4 -4 -4 -10z"/>
<path d="M3368 683 c7 -3 16 -2 19 1 4 3 -2 6 -13 5 -11 0 -14 -3 -6 -6z"/>
<path d="M1620 669 c0 -5 5 -7 10 -4 6 3 10 8 10 11 0 2 -4 4 -10 4 -5 0 -10
-5 -10 -11z"/>
<path d="M870 660 c0 -5 5 -10 10 -10 6 0 10 5 10 10 0 6 -4 10 -10 10 -5 0
-10 -4 -10 -10z"/>
<path d="M1500 646 c0 -8 4 -17 9 -20 5 -4 7 3 4 14 -6 23 -13 26 -13 6z"/>
<path d="M3340 639 c0 -5 5 -7 10 -4 6 3 10 8 10 11 0 2 -4 4 -10 4 -5 0 -10
-5 -10 -11z"/>
<path d="M1411 626 c-8 -10 -9 -16 -1 -21 5 -3 10 0 10 9 0 8 6 17 13 19 7 4
8 6 1 6 -6 1 -17 -5 -23 -13z"/>
<path d="M3852 590 c0 -19 2 -27 5 -17 2 9 2 25 0 35 -3 9 -5 1 -5 -18z"/>
<path d="M1472 599 c2 -7 10 -15 17 -17 8 -3 12 1 9 9 -2 7 -10 15 -17 17 -8
3 -12 -1 -9 -9z"/>
<path d="M900 592 c0 -5 10 -17 22 -28 l21 -19 -18 28 c-18 28 -25 33 -25 19z"/>
<path d="M1515 590 c3 -5 8 -10 11 -10 2 0 4 5 4 10 0 6 -5 10 -11 10 -5 0 -7
-4 -4 -10z"/>
<path d="M1540 563 c0 -30 12 -43 31 -32 23 12 25 34 2 25 -9 -4 -20 -1 -25 6
-5 9 -8 9 -8 1z"/>
<path d="M1631 534 c0 -11 3 -14 6 -6 3 7 2 16 -1 19 -3 4 -6 -2 -5 -13z"/>
<path d="M1680 539 c0 -5 5 -7 10 -4 6 3 10 8 10 11 0 2 -4 4 -10 4 -5 0 -10
-5 -10 -11z"/>
<path d="M1885 540 c-3 -6 1 -7 9 -4 18 7 21 14 7 14 -6 0 -13 -4 -16 -10z"/>
<path d="M4340 541 c0 -5 5 -13 10 -16 6 -3 10 -2 10 4 0 5 -4 13 -10 16 -5 3
-10 2 -10 -4z"/>
<path d="M2285 530 c-3 -5 -1 -10 4 -10 6 0 11 5 11 10 0 6 -2 10 -4 10 -3 0
-8 -4 -11 -10z"/>
<path d="M986 515 c-3 -9 0 -15 9 -15 8 0 15 7 15 15 0 8 -4 15 -9 15 -5 0
-11 -7 -15 -15z"/>
<path d="M930 513 c0 -5 5 -15 10 -23 8 -12 10 -11 10 8 0 12 -4 22 -10 22 -5
0 -10 -3 -10 -7z"/>
<path d="M1905 480 c3 -5 8 -10 11 -10 2 0 4 5 4 10 0 6 -5 10 -11 10 -5 0 -7
-4 -4 -10z"/>
<path d="M965 470 c4 -6 11 -8 16 -5 14 9 11 15 -7 15 -8 0 -12 -5 -9 -10z"/>
<path d="M1585 469 c-4 -6 -5 -12 -2 -15 2 -3 7 2 10 11 7 17 1 20 -8 4z"/>
<path d="M1818 473 c-21 -5 -24 -23 -4 -23 8 0 16 7 20 15 3 8 4 14 3 14 -1
-1 -10 -3 -19 -6z"/>
<path d="M2105 470 c3 -5 8 -10 11 -10 2 0 4 5 4 10 0 6 -5 10 -11 10 -5 0 -7
-4 -4 -10z"/>
<path d="M3758 473 c7 -3 16 -2 19 1 4 3 -2 6 -13 5 -11 0 -14 -3 -6 -6z"/>
<path d="M2391 454 c0 -11 3 -14 6 -6 3 7 2 16 -1 19 -3 4 -6 -2 -5 -13z"/>
<path d="M4390 461 c0 -6 5 -13 10 -16 6 -3 10 1 10 9 0 9 -4 16 -10 16 -5 0
-10 -4 -10 -9z"/>
<path d="M2305 451 c-3 -5 -1 -12 5 -16 5 -3 10 1 10 9 0 18 -6 21 -15 7z"/>
<path d="M4286 450 c-13 -4 -16 -9 -8 -14 7 -4 19 -3 28 2 21 12 5 22 -20 12z"/>
<path d="M1530 419 c0 -5 5 -7 10 -4 6 3 10 8 10 11 0 2 -4 4 -10 4 -5 0 -10
-5 -10 -11z"/>
<path d="M1797 410 c-11 -14 -13 -20 -4 -20 7 0 17 -8 24 -19 10 -16 8 -18
-14 -17 -15 1 -28 -5 -30 -11 -3 -9 4 -11 26 -7 20 4 31 2 31 -5 0 -6 -11 -11
-25 -11 -15 0 -25 -6 -25 -14 0 -8 -9 -21 -21 -30 -22 -15 -23 -46 -1 -54 7
-2 12 6 12 22 0 24 2 25 20 14 20 -13 28 -38 11 -38 -13 0 11 -48 27 -55 6 -2
12 2 12 10 0 8 -4 15 -10 15 -5 0 -10 7 -10 15 0 8 4 15 9 15 5 0 4 11 -2 25
-7 14 -15 25 -19 25 -5 0 -8 9 -8 20 0 11 5 20 10 20 6 0 10 -7 10 -15 0 -8 5
-15 11 -15 5 0 7 -4 4 -10 -3 -5 -2 -10 3 -10 13 0 24 44 12 48 -19 7 -10 33
15 42 30 11 33 20 5 13 -24 -6 -64 33 -56 54 7 18 3 16 -17 -7z"/>
<path d="M1842 410 c-10 -17 -10 -20 3 -20 8 0 15 2 15 4 0 2 3 11 6 20 9 23
-9 20 -24 -4z"/>
<path d="M2355 410 c-4 -6 3 -10 14 -10 25 0 27 6 6 13 -8 4 -17 2 -20 -3z"/>
<path d="M4057 396 c-5 -12 0 -16 21 -15 16 0 21 3 12 6 -8 3 -18 10 -21 15
-3 5 -9 3 -12 -6z"/>
<path d="M1462 391 c-11 -7 -11 -9 1 -14 16 -6 27 0 27 15 0 10 -11 10 -28 -1z"/>
<path d="M4300 390 c-9 -6 -10 -10 -3 -10 6 0 15 5 18 10 8 12 4 12 -15 0z"/>
<path d="M1500 372 c0 -5 11 -15 25 -22 28 -15 33 -30 10 -30 -8 0 -15 5 -15
10 0 25 -17 6 -33 -37 -17 -44 -16 -58 4 -58 5 0 9 -4 8 -10 0 -5 -7 -9 -15
-7 -8 2 -14 -2 -14 -8 0 -5 5 -10 10 -10 6 0 10 -6 10 -13 0 -7 7 -22 15 -33
14 -18 16 -18 28 -2 8 10 18 14 22 10 4 -4 5 4 2 16 -7 28 1 54 14 46 13 -8
11 10 -3 24 -19 19 -25 14 -26 -18 0 -16 -8 -40 -16 -52 -18 -25 -21 -12 -6
26 7 18 5 33 -5 53 -20 39 -19 46 9 41 19 -4 26 0 30 16 5 18 8 19 16 6 8 -12
10 -11 10 7 0 17 -4 21 -16 16 -13 -5 -15 -1 -9 18 5 19 4 21 -5 9 -9 -11 -13
-12 -17 -2 -5 13 -33 17 -33 4z"/>
<path d="M1700 370 c0 -5 5 -10 11 -10 5 0 7 5 4 10 -3 6 -8 10 -11 10 -2 0
-4 -4 -4 -10z"/>
<path d="M4485 360 c-3 -5 -1 -10 4 -10 6 0 11 5 11 10 0 6 -2 10 -4 10 -3 0
-8 -4 -11 -10z"/>
<path d="M1720 330 c0 -5 5 -10 11 -10 5 0 7 5 4 10 -3 6 -8 10 -11 10 -2 0
-4 -4 -4 -10z"/>
<path d="M3790 320 c0 -5 5 -10 11 -10 5 0 7 5 4 10 -3 6 -8 10 -11 10 -2 0
-4 -4 -4 -10z"/>
<path d="M2360 310 c-14 -4 -23 -9 -20 -10 23 -8 39 -6 44 6 3 8 4 14 3 13 -1
-1 -13 -5 -27 -9z"/>
<path d="M2420 316 c0 -2 7 -6 15 -10 8 -3 15 -1 15 4 0 6 -7 10 -15 10 -8 0
-15 -2 -15 -4z"/>
<path d="M1696 294 c-8 -22 -1 -28 21 -19 12 5 14 9 5 12 -6 3 -10 9 -6 14 3
5 1 9 -4 9 -6 0 -13 -7 -16 -16z"/>
<path d="M4260 299 c0 -5 14 -9 32 -9 36 0 32 10 -6 14 -14 2 -26 -1 -26 -5z"/>
<path d="M705 284 c-25 -19 -17 -22 25 -12 22 6 40 14 40 18 0 11 -47 7 -65
-6z"/>
<path d="M1631 284 c0 -11 3 -14 6 -6 3 7 2 16 -1 19 -3 4 -6 -2 -5 -13z"/>
<path d="M4223 285 c0 -8 4 -15 9 -15 4 0 8 7 8 15 0 8 -4 15 -8 15 -5 0 -9
-7 -9 -15z"/>
<path d="M4481 274 c0 -11 3 -14 6 -6 3 7 2 16 -1 19 -3 4 -6 -2 -5 -13z"/>
<path d="M2475 270 c3 -5 8 -10 11 -10 2 0 4 5 4 10 0 6 -5 10 -11 10 -5 0 -7
-4 -4 -10z"/>
<path d="M2446 253 c-6 -14 -5 -15 5 -6 7 7 10 15 7 18 -3 3 -9 -2 -12 -12z"/>
<path d="M1593 245 c-9 -25 4 -29 17 -6 7 15 7 21 0 21 -6 0 -13 -7 -17 -15z"/>
<path d="M2415 240 c-3 -5 -1 -10 4 -10 6 0 11 5 11 10 0 6 -2 10 -4 10 -3 0
-8 -4 -11 -10z"/>
<path d="M2505 240 c3 -5 8 -10 11 -10 2 0 4 5 4 10 0 6 -5 10 -11 10 -5 0 -7
-4 -4 -10z"/>
<path d="M4214 235 c-3 -8 -4 -20 -1 -27 3 -7 6 -3 6 9 1 12 7 24 14 26 9 4 9
6 -1 6 -7 1 -15 -6 -18 -14z"/>
<path d="M1638 233 c-10 -2 -18 -12 -18 -22 0 -9 -5 -22 -11 -28 -7 -7 -1 -12
22 -17 37 -7 55 2 21 11 -25 6 -29 21 -8 29 8 3 17 12 20 20 6 14 4 15 -26 7z"/>
<path d="M740 226 c0 -2 9 -6 20 -9 11 -3 18 -1 14 4 -5 9 -34 13 -34 5z"/>
<path d="M2160 219 c0 -5 5 -7 10 -4 6 3 10 8 10 11 0 2 -4 4 -10 4 -5 0 -10
-5 -10 -11z"/>
<path d="M2121 204 c0 -11 3 -14 6 -6 3 7 2 16 -1 19 -3 4 -6 -2 -5 -13z"/>
<path d="M2431 194 c0 -11 3 -14 6 -6 3 7 2 16 -1 19 -3 4 -6 -2 -5 -13z"/>
<path d="M672 170 c0 -19 2 -27 5 -17 2 9 2 25 0 35 -3 9 -5 1 -5 -18z"/>
<path d="M728 193 c7 -3 16 -2 19 1 4 3 -2 6 -13 5 -11 0 -14 -3 -6 -6z"/>
<path d="M1675 190 c28 -12 37 -12 30 0 -3 6 -16 10 -28 9 -21 0 -21 -1 -2 -9z"/>
<path d="M1785 190 c3 -5 8 -10 11 -10 2 0 4 5 4 10 0 6 -5 10 -11 10 -5 0 -7
-4 -4 -10z"/>
<path d="M760 176 c0 -8 -7 -22 -16 -30 -14 -15 -14 -16 1 -16 8 0 19 -10 24
-22 l8 -23 8 25 c5 16 4 25 -4 28 -8 3 -6 8 5 16 9 7 14 18 10 24 -10 17 -36
15 -36 -2z"/>
<path d="M1737 183 c-4 -3 -7 -13 -7 -21 0 -12 3 -12 15 -2 8 7 15 16 15 21 0
11 -14 12 -23 2z"/>
<path d="M3340 180 c-8 -5 -12 -12 -9 -15 4 -3 12 1 19 10 14 17 11 19 -10 5z"/>
<path d="M1780 160 c0 -4 9 -10 21 -13 12 -3 19 -1 17 5 -5 13 -38 20 -38 8z"/>
<path d="M3241 154 c0 -11 3 -14 6 -6 3 7 2 16 -1 19 -3 4 -6 -2 -5 -13z"/>
<path d="M800 150 c0 -5 5 -10 10 -10 6 0 10 5 10 10 0 6 -4 10 -10 10 -5 0
-10 -4 -10 -10z"/>
<path d="M1657 143 c-4 -3 -7 -20 -8 -37 0 -17 -3 -25 -6 -18 -7 17 -33 15
-33 -3 0 -10 -10 -15 -27 -15 -25 0 -26 1 -8 13 13 10 15 16 6 21 -6 4 -9 11
-6 16 3 5 -17 8 -45 8 -35 -1 -54 -6 -60 -17 -5 -9 -12 -15 -17 -13 -4 2 -9
-1 -11 -7 -2 -6 7 -10 21 -9 16 1 23 7 20 15 -7 18 7 16 29 -4 11 -9 18 -11
18 -5 0 7 5 12 10 12 6 0 9 -11 7 -25 -3 -25 -17 -47 -17 -27 0 7 -9 12 -20
12 -11 0 -20 -4 -20 -10 0 -5 9 -10 19 -10 11 0 23 -5 26 -10 4 -6 11 -8 16
-5 5 4 9 2 9 -4 0 -5 -6 -12 -12 -14 -7 -3 2 -6 21 -6 27 -1 32 2 27 16 -7 17
9 33 32 33 9 0 11 -7 7 -19 -3 -11 0 -23 6 -27 8 -4 9 -3 5 4 -10 16 11 52 30
52 8 0 13 4 10 9 -7 11 23 25 43 22 12 -2 12 0 3 12 -6 7 -10 17 -7 21 3 3 -1
2 -7 -4 -15 -13 -38 -13 -38 0 0 6 7 10 15 10 8 0 15 5 15 10 0 11 -43 14 -53
3z"/>
<path d="M1850 140 c0 -5 5 -10 11 -10 5 0 7 5 4 10 -3 6 -8 10 -11 10 -2 0
-4 -4 -4 -10z"/>
<path d="M2362 129 c-7 -11 -8 -20 -2 -24 6 -3 10 1 10 9 0 8 8 16 18 18 15 3
15 4 1 10 -9 4 -20 -1 -27 -13z"/>
<path d="M4405 140 c3 -5 8 -10 11 -10 2 0 4 5 4 10 0 6 -5 10 -11 10 -5 0 -7
-4 -4 -10z"/>
<path d="M4431 134 c0 -11 3 -14 6 -6 3 7 2 16 -1 19 -3 4 -6 -2 -5 -13z"/>
<path d="M1616 131 c-3 -5 1 -11 9 -15 9 -3 15 0 15 9 0 16 -16 20 -24 6z"/>
<path d="M2421 118 c0 -16 -6 -28 -12 -28 -5 0 -7 -5 -3 -11 10 -17 26 17 21
44 -4 18 -4 18 -6 -5z"/>
<path d="M3705 130 c4 -6 11 -8 16 -5 14 9 11 15 -7 15 -8 0 -12 -5 -9 -10z"/>
<path d="M1760 115 c-7 -8 -8 -15 -2 -15 5 0 15 7 22 15 7 8 8 15 2 15 -5 0
-15 -7 -22 -15z"/>
<path d="M670 106 c0 -9 5 -16 10 -16 6 0 10 4 10 9 0 6 -4 13 -10 16 -5 3
-10 -1 -10 -9z"/>
<path d="M1830 101 c0 -5 -8 -12 -17 -14 -15 -4 -15 -5 -2 -6 9 0 22 6 29 14
9 10 9 15 1 15 -6 0 -11 -4 -11 -9z"/>
<path d="M2440 78 c0 -21 5 -38 10 -38 6 0 10 7 10 15 0 8 6 15 14 15 8 0 17
4 21 9 3 6 -4 8 -15 6 -11 -2 -24 3 -30 13 -7 13 -9 9 -10 -20z"/>
<path d="M4060 80 c0 -5 5 -10 11 -10 5 0 7 5 4 10 -3 6 -8 10 -11 10 -2 0 -4
-4 -4 -10z"/>
<path d="M1760 66 c0 -9 7 -16 16 -16 9 0 14 5 12 12 -6 18 -28 21 -28 4z"/>
<path d="M2367 69 c7 -7 15 -10 18 -7 3 3 -2 9 -12 12 -14 6 -15 5 -6 -5z"/>
<path d="M4200 70 c0 -5 5 -10 11 -10 5 0 7 5 4 10 -3 6 -8 10 -11 10 -2 0 -4
-4 -4 -10z"/>
<path d="M4395 60 c3 -5 8 -10 11 -10 2 0 4 5 4 10 0 6 -5 10 -11 10 -5 0 -7
-4 -4 -10z"/>
<path d="M1870 45 c7 -9 15 -13 17 -11 7 7 -7 26 -19 26 -6 0 -6 -6 2 -15z"/>
<path d="M2120 44 c0 -8 5 -12 10 -9 6 4 8 11 5 16 -9 14 -15 11 -15 -7z"/>
<path d="M1447 23 l-19 -24 41 3 c47 2 51 9 18 31 -20 13 -24 12 -40 -10z"/>
<path d="M1692 36 c-34 -16 -21 -31 29 -32 30 -1 34 0 12 3 -35 5 -44 19 -15
25 9 2 13 6 7 9 -5 3 -20 1 -33 -5z"/>
<path d="M2177 29 c-4 -16 -3 -18 9 -8 7 6 11 15 8 20 -8 13 -11 11 -17 -12z"/>
<path d="M2370 29 c0 -5 5 -7 10 -4 6 3 10 8 10 11 0 2 -4 4 -10 4 -5 0 -10
-5 -10 -11z"/>
<path d="M666 14 c-4 -10 -1 -14 6 -12 15 5 23 28 10 28 -5 0 -13 -7 -16 -16z"/>
<path d="M715 10 c-3 -5 3 -10 15 -10 12 0 18 5 15 10 -3 6 -10 10 -15 10 -5
0 -12 -4 -15 -10z"/>
</g>
</svg>
